<svg width="52" height="52" viewBox="0 0 52 52" fill="none" xmlns="http://www.w3.org/2000/svg">
<rect width="52" height="52" rx="12" fill="black"/>
<path d="M14 38C13.175 38 12.469 37.7065 11.882 37.1195C11.295 36.5325 11.001 35.826 11 35V17C11 16.175 11.294 15.469 11.882 14.882C12.47 14.295 13.176 14.001 14 14H38C38.825 14 39.5315 14.294 40.1195 14.882C40.7075 15.47 41.001 16.176 41 17V35C41 35.825 40.7065 36.5315 40.1195 37.1195C39.5325 37.7075 38.826 38.001 38 38H14ZM26 27.5L38 20V17L26 24.5L14 17V20L26 27.5Z" fill="white"/>
</svg>
