<svg width="1920" height="1121" viewBox="0 0 1920 1121" fill="none" xmlns="http://www.w3.org/2000/svg">
<g clip-path="url(#clip0_557_29699)">
<rect width="1920" height="1121" fill="#050505"/>
<path d="M234.224 280.62L238.121 261.592H249.485C258.317 261.592 263.513 258.215 263.513 252.565C263.513 247.5 259.097 244.382 251.888 244.382C245.459 244.382 240.134 247.954 239.095 252.89H214.287C216.755 235.68 233.055 223.666 254.031 223.666C275.007 223.666 289.489 233.992 289.489 249.058C289.489 260.942 280.592 270.294 267.604 271.982L267.539 272.502C277.67 274.97 283.709 282.113 283.709 291.725C283.709 308.609 267.149 320.624 243.965 320.624C218.638 320.624 202.078 306.726 205.52 288.413H230.782C230.263 294.842 235.978 299.712 244.095 299.712C251.563 299.712 257.213 295.296 257.213 289.452C257.213 283.997 251.758 280.62 242.926 280.62H234.224ZM242.342 432H201.494L221.366 338.29H291.113L286.437 360.11H244.355L241.952 371.345H252.083C273.773 371.345 286.112 380.631 286.112 396.997C286.112 418.492 269.228 432 242.342 432ZM233.38 411.608H242.667C252.278 411.608 258.707 406.608 258.707 399.205C258.707 394.009 254.875 390.827 247.472 390.827H237.796L233.38 411.608ZM275.202 489.021C275.267 488.631 275.267 488.371 275.267 486.423C275.267 478.175 268.773 471.811 260.331 471.811C246.563 471.811 236.822 485.838 236.822 505.646C236.822 517.14 242.537 524.219 251.888 524.219C260.98 524.219 268.318 518.439 271.046 509.152H297.737C294.49 531.557 275.267 546.624 249.94 546.624C224.808 546.624 208.442 531.167 208.442 507.334C208.442 472.201 229.808 449.666 263.188 449.666C285.853 449.666 302.218 464.408 302.218 484.864C302.218 486.488 302.088 487.981 301.893 489.021H275.202Z" fill="#38FA59"/>
<path d="M315.279 302.635C320.929 302.635 325.994 298.998 327.033 294.127L328.007 289.517L316.902 289.776C311.058 289.906 307.161 292.699 307.161 296.79C307.161 300.297 310.473 302.635 315.279 302.635ZM303.265 320.039C291.38 320.039 282.418 311.792 282.418 300.622C282.418 285.75 294.952 276.398 315.344 275.944L330.995 275.619L331.839 271.463C332.034 270.359 332.099 269.904 332.099 269.45C332.099 266.138 328.592 263.93 323.396 263.93C318.591 263.93 315.019 265.878 313.72 269.645H290.536C293.394 254.643 306.901 245.486 325.215 245.486C344.243 245.486 357.166 254.318 357.166 267.372C357.166 269.19 356.906 271.723 356.582 273.151L346.84 319H321.838L323.656 310.558H323.137C319.63 316.208 312.291 320.039 303.265 320.039ZM462.184 337.249H438.935L442.831 319H349.446L364.707 247.305H390.424L379.189 300.167H393.866L405.101 247.305H430.882L419.647 300.167H434.324L445.559 247.305H471.276L460.041 300.167H470.107L462.184 337.249ZM489.337 319H464.205L479.466 247.305H504.534L496.676 284.062H497.91L528.237 247.305H553.37L538.108 319H512.976L521.029 281.204H519.795L489.337 319ZM654.166 337.249H630.917L634.814 319H541.428L556.689 247.305H582.406L571.171 300.167H585.848L597.083 247.305H622.865L611.63 300.167H626.307L637.541 247.305H663.258L652.023 300.167H662.089L654.166 337.249ZM687.489 274.71H711.777C711.907 274.385 711.972 273.346 711.972 272.632C711.972 267.177 707.686 263.28 701.517 263.28C694.828 263.28 689.178 267.891 687.489 274.71ZM695.932 320.753C675.41 320.753 662.032 308.609 662.032 287.958C662.032 263.41 678.267 245.486 702.685 245.486C721.908 245.486 735.286 257.695 735.286 276.398C735.286 280.295 734.896 285.101 733.987 288.737H685.151C685.021 289.452 684.956 290.166 684.956 290.815C684.956 297.439 689.502 302.635 697.23 302.635C702.88 302.635 707.231 299.777 708.465 295.621H732.364C728.662 310.688 715.024 320.753 695.932 320.753ZM728.995 319L744.256 247.305H769.973L764.453 273.281H786.208L791.728 247.305H817.445L802.183 319H776.467L782.182 291.984H760.426L754.711 319H728.995ZM805.568 319L820.829 247.305H846.546L841.026 273.281H862.782L868.302 247.305H894.018L878.757 319H853.04L858.755 291.984H837L831.285 319H805.568ZM957.734 319L972.995 247.305H998.777L983.515 319H957.734ZM923.834 284.711H915.197L911.885 300.167H920.522C926.367 300.167 931.043 296.076 931.043 291.01C931.043 287.179 928.38 284.711 923.834 284.711ZM882.142 319L897.403 247.305H923.12L919.094 266.203H930.718C946.499 266.203 957.019 274.97 957.019 288.283C957.019 305.297 942.148 319 922.211 319H882.142ZM1012.03 319H986.9L1002.16 247.305H1027.23L1019.37 284.062H1020.6L1050.93 247.305H1076.06L1060.8 319H1035.67L1043.72 281.204H1042.49L1012.03 319ZM1021.64 214.834H1036.52C1035.41 221.263 1038.4 225.29 1044.24 225.29C1050.09 225.29 1054.76 221.263 1056.39 214.834H1071.26C1068.99 228.537 1057.36 237.434 1041.65 237.434C1027.36 237.434 1019.37 228.537 1021.64 214.834ZM356.776 432L372.038 360.305H397.819L382.558 432H356.776ZM322.877 397.711H314.24L310.928 413.167H319.565C325.41 413.167 330.085 409.076 330.085 404.01C330.085 400.179 327.423 397.711 322.877 397.711ZM281.185 432L296.446 360.305H322.163L318.136 379.203H329.761C345.541 379.203 356.062 387.97 356.062 401.283C356.062 418.297 341.19 432 321.253 432H281.185ZM432.311 358.486C450.884 358.486 464.587 369.851 464.587 385.177C464.587 387.97 464.587 388.294 464.522 388.684H439.974C439.974 382.709 436.532 378.943 431.012 378.943C422.894 378.943 417.31 388.294 417.31 401.932C417.31 408.816 420.881 413.362 426.336 413.362C431.921 413.362 435.948 409.66 437.311 403.361H461.859C459.716 421.544 444.975 433.818 425.167 433.818C404.776 433.818 391.658 421.739 391.658 403.036C391.658 375.501 407.179 358.486 432.311 358.486ZM533.433 360.305L529.406 379.073H509.534L498.299 432H472.518L483.752 379.073H463.88L467.907 360.305H533.433ZM560.261 412.777C568.768 412.777 575.652 402.971 575.652 390.762C575.652 383.554 571.691 378.748 565.651 378.748C557.469 378.748 550.26 389.009 550.26 400.763C550.26 408.037 554.222 412.777 560.261 412.777ZM538.376 454.924H512.659L532.791 360.305H557.858L555.715 370.306H556.235C561.82 362.772 569.548 359.266 578.51 359.266C593.186 359.266 602.278 369.591 602.278 386.411C602.278 413.232 587.212 433.039 566.69 433.039C556.559 433.039 549.351 428.104 546.494 419.207H546.039L538.376 454.924ZM671.254 432L686.515 360.305H712.297L697.036 432H671.254ZM637.354 397.711H628.717L625.405 413.167H634.042C639.887 413.167 644.563 409.076 644.563 404.01C644.563 400.179 641.9 397.711 637.354 397.711ZM595.662 432L610.923 360.305H636.64L632.614 379.203H644.238C660.019 379.203 670.539 387.97 670.539 401.283C670.539 418.297 655.668 432 635.731 432H595.662ZM725.553 432H700.42L715.682 360.305H740.749L732.891 397.062H734.125L764.453 360.305H789.585L774.324 432H749.191L757.244 394.204H756.01L725.553 432ZM735.164 327.834H750.036C748.932 334.263 751.919 338.29 757.764 338.29C763.608 338.29 768.284 334.263 769.908 327.834H784.779C782.506 341.537 770.882 350.434 755.166 350.434C740.879 350.434 732.891 341.537 735.164 327.834ZM292.484 545L307.746 473.305H347.944C362.296 473.305 370.999 479.409 370.999 489.475C370.999 498.242 363.53 505.516 353.399 506.555L353.205 507.334C361.712 508.113 367.167 513.438 367.167 521.037C367.167 535.519 354.763 545 335.8 545H292.484ZM331.969 514.607H324.176L320.799 530.128H328.722C335.8 530.128 340.671 526.297 340.671 521.102C340.671 516.88 337.684 514.607 331.969 514.607ZM337.684 487.787H329.826L326.903 501.814H334.307C340.866 501.814 345.282 498.632 345.282 493.631C345.282 489.67 342.684 487.787 337.684 487.787ZM405.945 527.141C414.647 527.141 421.336 517.27 421.336 504.542C421.336 496.489 417.504 491.164 411.66 491.164C402.763 491.164 396.204 500.775 396.204 513.763C396.204 521.751 400.1 527.141 405.945 527.141ZM412.958 471.486C433.61 471.486 447.637 484.604 447.637 504.022C447.637 529.024 429.843 546.818 404.776 546.818C384.124 546.818 370.097 533.7 370.097 514.283C370.097 489.28 387.891 471.486 412.958 471.486ZM496.676 475.902C513.885 475.902 523.626 486.748 522.977 505.061C522.133 530.908 506.612 546.624 481.999 546.624C460.309 546.624 447.32 532.077 448.1 508.568C448.489 498.502 450.178 489.605 453.23 481.942C461.023 462.2 477.583 450.77 501.741 448.952L512.197 448.172C525.315 447.198 528.952 446.809 531.744 446.094L526.873 465.771C523.886 466.681 519.99 467.135 509.664 467.785L498.884 468.499C484.402 469.473 475.31 476.227 471.868 488.631H472.777C478.687 479.994 486.35 475.902 496.676 475.902ZM483.298 527.141C491.026 527.141 497.585 518.374 497.975 507.594C498.234 499.216 494.403 493.891 488.168 493.891C480.051 493.891 473.816 502.269 473.427 513.568C473.102 521.751 476.998 527.141 483.298 527.141ZM559.222 527.141C567.924 527.141 574.613 517.27 574.613 504.542C574.613 496.489 570.782 491.164 564.937 491.164C556.04 491.164 549.481 500.775 549.481 513.763C549.481 521.751 553.377 527.141 559.222 527.141ZM566.236 471.486C586.887 471.486 600.914 484.604 600.914 504.022C600.914 529.024 583.121 546.818 558.053 546.818C537.402 546.818 523.374 533.7 523.374 514.283C523.374 489.28 541.168 471.486 566.236 471.486ZM646.836 526.167L654.109 491.943H636.965L632.419 508.308C630.536 515.127 627.938 520.647 624.626 524.933L624.366 526.167H646.836ZM608.845 563.249H585.596L593.519 526.167H598.649C603.52 524.089 606.962 518.114 610.209 506.36L619.301 473.305H683.333L672.098 526.167H682.164L674.241 563.249H650.992L654.889 545H612.742L608.845 563.249ZM676.262 545L691.523 473.305H717.24L711.72 499.281H733.475L738.995 473.305H764.712L749.451 545H723.734L729.449 517.984H707.694L701.979 545H676.262ZM828.428 545L843.689 473.305H869.471L854.209 545H828.428ZM794.528 510.711H785.891L782.579 526.167H791.216C797.061 526.167 801.737 522.076 801.737 517.01C801.737 513.179 799.074 510.711 794.528 510.711ZM752.836 545L768.097 473.305H793.814L789.787 492.203H801.412C817.193 492.203 827.713 500.97 827.713 514.283C827.713 531.297 812.842 545 792.905 545H752.836ZM882.726 545H857.594L872.855 473.305H897.923L890.065 510.062H891.299L921.626 473.305H946.759L931.497 545H906.365L914.418 507.204H913.184L882.726 545ZM892.338 440.834H907.209C906.105 447.263 909.093 451.29 914.937 451.29C920.782 451.29 925.458 447.263 927.081 440.834H941.953C939.68 454.537 928.055 463.434 912.34 463.434C898.053 463.434 890.065 454.537 892.338 440.834Z" fill="white"/>
<rect x="1689.89" y="477.292" width="8.64718" height="293.169" transform="rotate(45 1689.89 477.292)" fill="url(#paint0_linear_557_29699)"/>
<rect x="1367.47" y="282.599" width="8.64718" height="543.051" transform="rotate(45 1367.47 282.599)" fill="url(#paint1_linear_557_29699)"/>
<rect x="1673.56" y="313.031" width="8.64718" height="1030.34" transform="rotate(45 1673.56 313.031)" fill="url(#paint2_linear_557_29699)"/>
<path d="M1650.86 358.307L1657.05 335.39L1634.94 342.877L1653.04 327.696L1631.19 320.586L1654.28 318.939L1641.04 299.948L1660.31 312.464L1660.73 288.847L1668.81 310.746L1682.74 291.522L1676.55 314.439L1698.66 306.951L1680.56 322.133L1702.41 329.242L1679.31 330.89L1692.55 349.88L1673.29 337.364L1672.86 360.982L1664.78 339.083L1650.86 358.307Z" fill="white"/>
<g filter="url(#filter0_f_557_29699)">
<path d="M1650.86 358.307L1657.48 335.495L1635.95 344.68L1653.5 328.821L1630.83 324.777L1653.73 320.907L1637.13 304.918L1658.12 314.265L1652.86 291.408L1665.26 311.004L1673 288.535L1672.89 312.159L1691.18 297.213L1678.58 317.365L1701.62 314.686L1680.54 324.967L1701 335.406L1678.13 332.552L1689.52 352.795L1672.12 337.713L1670.83 361.333L1664.43 338.81L1650.86 358.307Z" fill="white"/>
</g>
<path d="M1387.48 305.511L1378.33 290.19L1370.82 306.048L1372.08 288.336L1356.82 296.424L1368 283.087L1350.82 280.316L1367.65 276.448L1355.11 263.875L1371.16 270.954L1368.05 253.382L1377.2 268.704L1384.71 252.846L1383.46 270.558L1398.71 262.469L1387.54 275.807L1404.72 278.578L1387.88 282.446L1400.42 295.019L1384.37 287.94L1387.48 305.511Z" fill="white"/>
<g filter="url(#filter1_f_557_29699)">
<path d="M1387.48 305.511L1378.62 290.009L1372.32 306.446L1372.93 288.675L1358.89 298.809L1368.77 284.411L1351.46 285.024L1367.48 278.571L1352.38 269.469L1369.45 273.009L1361.35 257.082L1374.06 269.491L1375.54 251.795L1379.85 269.134L1390.44 255.288L1384.97 272.051L1401.31 266.451L1387.81 277.317L1404.71 281.74L1387.46 283.258L1399.55 296.301L1384.03 287.99L1387.48 305.511Z" fill="white"/>
</g>
<path d="M1712.19 487.851L1699.6 484.894L1704.08 496.804L1695.48 487.22L1692 499.252L1690.68 486.7L1680.58 494.258L1687.05 483.535L1674.17 483.732L1685.95 478.931L1675.23 471.692L1687.83 474.649L1683.35 462.739L1691.95 472.324L1695.42 460.292L1696.74 472.843L1706.85 465.285L1700.38 476.009L1713.25 475.812L1701.47 480.612L1712.19 487.851Z" fill="white"/>
<g filter="url(#filter2_f_557_29699)">
<path d="M1712.19 487.851L1699.65 484.654L1705.04 496.223L1696.08 486.948L1694.29 499.371L1691.76 486.962L1683.35 496.297L1688.07 484.694L1675.71 487.976L1686.16 480.863L1673.78 477.051L1686.65 476.686L1678.18 466.989L1689.38 473.488L1687.51 460.985L1693.49 472.285L1698.81 460.947L1697.67 473.46L1708.49 466.885L1700.59 476.638L1713.48 476.914L1701.32 480.811L1712.19 487.851Z" fill="white"/>
</g>
<rect x="200" y="644" width="279" height="74" rx="37" fill="white"/>
<path d="M240.266 690H237.254V675.715H229.238V690H226.203V673.09H240.266V690ZM248.458 690.258C246.537 690.258 245.029 689.668 243.935 688.488C242.841 687.301 242.294 685.668 242.294 683.59C242.294 681.527 242.845 679.902 243.947 678.715C245.048 677.52 246.552 676.922 248.458 676.922C250.372 676.922 251.876 677.516 252.97 678.703C254.072 679.891 254.622 681.52 254.622 683.59C254.622 685.668 254.072 687.301 252.97 688.488C251.876 689.668 250.372 690.258 248.458 690.258ZM246.103 686.719C246.658 687.453 247.443 687.82 248.458 687.82C249.474 687.82 250.255 687.453 250.802 686.719C251.357 685.977 251.634 684.934 251.634 683.59C251.634 682.254 251.357 681.215 250.802 680.473C250.247 679.73 249.466 679.359 248.458 679.359C247.443 679.359 246.658 679.73 246.103 680.473C245.548 681.215 245.271 682.254 245.271 683.59C245.271 684.934 245.548 685.977 246.103 686.719ZM264.667 690V679.5H259.241V690H256.335V677.18H267.573V690H264.667ZM276.903 676.969C278.528 676.969 279.813 677.559 280.758 678.738C281.711 679.918 282.188 681.535 282.188 683.59C282.188 685.637 281.715 687.254 280.77 688.441C279.832 689.621 278.555 690.211 276.938 690.211C276.024 690.211 275.223 690.023 274.535 689.648C273.856 689.266 273.352 688.734 273.024 688.055H272.825V694.266H269.918V677.18H272.719V679.301H272.918C273.285 678.574 273.821 678.004 274.524 677.59C275.235 677.176 276.028 676.969 276.903 676.969ZM275.989 687.738C276.996 687.738 277.782 687.371 278.344 686.637C278.914 685.902 279.2 684.887 279.2 683.59C279.2 682.293 278.914 681.277 278.344 680.543C277.782 679.809 277 679.441 276 679.441C275.008 679.441 274.223 679.812 273.645 680.555C273.067 681.297 272.774 682.309 272.766 683.59C272.774 684.871 273.063 685.883 273.633 686.625C274.211 687.367 274.996 687.738 275.989 687.738ZM289.467 690.258C287.545 690.258 286.037 689.668 284.943 688.488C283.849 687.301 283.302 685.668 283.302 683.59C283.302 681.527 283.853 679.902 284.955 678.715C286.056 677.52 287.56 676.922 289.467 676.922C291.381 676.922 292.885 677.516 293.978 678.703C295.08 679.891 295.631 681.52 295.631 683.59C295.631 685.668 295.08 687.301 293.978 688.488C292.885 689.668 291.381 690.258 289.467 690.258ZM287.111 686.719C287.666 687.453 288.451 687.82 289.467 687.82C290.482 687.82 291.263 687.453 291.81 686.719C292.365 685.977 292.642 684.934 292.642 683.59C292.642 682.254 292.365 681.215 291.81 680.473C291.256 679.73 290.474 679.359 289.467 679.359C288.451 679.359 287.666 679.73 287.111 680.473C286.556 681.215 286.279 682.254 286.279 683.59C286.279 684.934 286.556 685.977 287.111 686.719ZM302.98 687.82C304.003 687.82 304.796 687.469 305.359 686.766C305.929 686.062 306.214 685.07 306.214 683.789C306.214 682.562 305.929 681.609 305.359 680.93C304.796 680.25 304.003 679.91 302.98 679.91C301.956 679.91 301.159 680.25 300.589 680.93C300.027 681.609 299.745 682.562 299.745 683.789C299.745 685.07 300.027 686.062 300.589 686.766C301.152 687.469 301.948 687.82 302.98 687.82ZM299.066 679.98H299.265C300.132 678.371 301.566 677.566 303.566 677.566C305.261 677.566 306.624 678.121 307.655 679.23C308.687 680.332 309.202 681.832 309.202 683.73C309.202 685.754 308.648 687.348 307.538 688.512C306.437 689.676 304.929 690.258 303.015 690.258C301.007 690.258 299.46 689.613 298.374 688.324C297.296 687.035 296.757 685.121 296.757 682.582C296.757 679.348 297.28 676.941 298.327 675.363C299.382 673.777 301.105 672.938 303.495 672.844L305.007 672.785C305.601 672.762 306.175 672.703 306.73 672.609C307.292 672.508 307.698 672.418 307.948 672.34C308.206 672.262 308.343 672.215 308.359 672.199V674.613C308.296 674.652 308.195 674.703 308.054 674.766C307.921 674.828 307.581 674.918 307.034 675.035C306.495 675.145 305.878 675.211 305.183 675.234L303.706 675.293C302.902 675.324 302.218 675.445 301.655 675.656C301.101 675.867 300.648 676.18 300.296 676.594C299.945 677.008 299.675 677.484 299.488 678.023C299.3 678.562 299.159 679.215 299.066 679.98ZM316.493 690.258C314.571 690.258 313.063 689.668 311.969 688.488C310.876 687.301 310.329 685.668 310.329 683.59C310.329 681.527 310.88 679.902 311.981 678.715C313.083 677.52 314.587 676.922 316.493 676.922C318.407 676.922 319.911 677.516 321.005 678.703C322.106 679.891 322.657 681.52 322.657 683.59C322.657 685.668 322.106 687.301 321.005 688.488C319.911 689.668 318.407 690.258 316.493 690.258ZM314.137 686.719C314.692 687.453 315.477 687.82 316.493 687.82C317.508 687.82 318.29 687.453 318.837 686.719C319.391 685.977 319.669 684.934 319.669 683.59C319.669 682.254 319.391 681.215 318.837 680.473C318.282 679.73 317.501 679.359 316.493 679.359C315.477 679.359 314.692 679.73 314.137 680.473C313.583 681.215 313.305 682.254 313.305 683.59C313.305 684.934 313.583 685.977 314.137 686.719ZM329.76 679.219H327.24V682.418H329.525C330.955 682.418 331.67 681.879 331.67 680.801C331.67 680.309 331.51 679.922 331.19 679.641C330.869 679.359 330.393 679.219 329.76 679.219ZM329.701 684.328H327.24V687.961H329.959C330.678 687.961 331.229 687.805 331.611 687.492C331.994 687.18 332.186 686.73 332.186 686.145C332.186 684.934 331.357 684.328 329.701 684.328ZM324.369 690V677.18H330.428C331.709 677.18 332.709 677.473 333.428 678.059C334.154 678.637 334.518 679.426 334.518 680.426C334.518 681.082 334.303 681.672 333.873 682.195C333.451 682.711 332.924 683.023 332.291 683.133V683.344C333.127 683.43 333.803 683.75 334.318 684.305C334.834 684.852 335.092 685.516 335.092 686.297C335.092 687.422 334.682 688.32 333.861 688.992C333.041 689.664 331.924 690 330.51 690H324.369ZM341.246 687.926C342.121 687.926 342.851 687.676 343.437 687.176C344.023 686.668 344.316 686.043 344.316 685.301V684.281L341.421 684.469C339.828 684.57 339.031 685.148 339.031 686.203C339.031 686.734 339.234 687.156 339.64 687.469C340.054 687.773 340.589 687.926 341.246 687.926ZM340.39 690.211C339.14 690.211 338.121 689.859 337.332 689.156C336.542 688.453 336.148 687.523 336.148 686.367C336.148 685.211 336.566 684.305 337.402 683.648C338.246 682.992 339.449 682.617 341.011 682.523L344.316 682.324V681.246C344.316 680.613 344.109 680.129 343.695 679.793C343.281 679.457 342.683 679.289 341.902 679.289C341.23 679.289 340.675 679.406 340.238 679.641C339.8 679.867 339.515 680.195 339.382 680.625H336.64C336.757 679.492 337.304 678.594 338.281 677.93C339.265 677.258 340.519 676.922 342.042 676.922C343.683 676.922 344.949 677.301 345.839 678.059C346.738 678.816 347.187 679.879 347.187 681.246V690H344.386V688.242H344.187C343.828 688.859 343.312 689.344 342.64 689.695C341.976 690.039 341.226 690.211 340.39 690.211ZM359.259 677.18V679.5H355.31V690H352.403V679.5H348.454V677.18H359.259ZM365.67 683.332H363.479V687.68H365.67C366.389 687.68 366.959 687.48 367.381 687.082C367.811 686.684 368.026 686.156 368.026 685.5C368.026 684.844 367.811 684.32 367.381 683.93C366.952 683.531 366.381 683.332 365.67 683.332ZM360.573 690V677.18H363.479V681.023H366.022C367.514 681.023 368.702 681.43 369.584 682.242C370.475 683.055 370.92 684.145 370.92 685.512C370.92 686.879 370.475 687.969 369.584 688.781C368.702 689.594 367.514 690 366.022 690H360.573ZM388.536 681.492H385.771C385.63 680.844 385.318 680.328 384.833 679.945C384.349 679.555 383.72 679.359 382.947 679.359C381.947 679.359 381.165 679.727 380.603 680.461C380.048 681.195 379.771 682.227 379.771 683.555C379.771 684.898 380.052 685.945 380.615 686.695C381.177 687.445 381.954 687.82 382.947 687.82C383.704 687.82 384.325 687.645 384.81 687.293C385.302 686.941 385.622 686.434 385.771 685.77H388.536C388.372 687.137 387.798 688.227 386.814 689.039C385.837 689.852 384.552 690.258 382.958 690.258C381.029 690.258 379.525 689.668 378.447 688.488C377.368 687.309 376.829 685.664 376.829 683.555C376.829 681.469 377.368 679.844 378.447 678.68C379.525 677.508 381.025 676.922 382.947 676.922C384.556 676.922 385.849 677.34 386.825 678.176C387.81 679.004 388.38 680.109 388.536 681.492ZM395.44 679.23C394.573 679.23 393.858 679.516 393.296 680.086C392.733 680.656 392.421 681.41 392.358 682.348H398.393C398.362 681.395 398.081 680.637 397.55 680.074C397.018 679.512 396.315 679.23 395.44 679.23ZM398.417 686.473H401.171C400.897 687.645 400.253 688.57 399.237 689.25C398.229 689.922 396.975 690.258 395.475 690.258C393.592 690.258 392.112 689.672 391.034 688.5C389.964 687.32 389.428 685.699 389.428 683.637C389.428 681.574 389.967 679.941 391.046 678.738C392.124 677.527 393.592 676.922 395.452 676.922C397.28 676.922 398.71 677.496 399.741 678.645C400.78 679.785 401.3 681.367 401.3 683.391V684.328H392.346V684.48C392.385 685.551 392.69 686.398 393.26 687.023C393.839 687.641 394.604 687.949 395.557 687.949C397.026 687.949 397.979 687.457 398.417 686.473ZM405.871 690H403V677.18H405.871V685.664H406.07L411.649 677.18H414.508V690H411.649V681.457H411.438L405.871 690ZM404.336 671.32H406.633C406.641 671.969 406.824 672.508 407.184 672.938C407.551 673.367 408.035 673.582 408.637 673.582C409.238 673.582 409.719 673.367 410.078 672.938C410.445 672.508 410.637 671.969 410.652 671.32H412.938C412.938 672.492 412.539 673.453 411.742 674.203C410.953 674.953 409.918 675.328 408.637 675.328C407.356 675.328 406.317 674.953 405.52 674.203C404.731 673.453 404.336 672.492 404.336 671.32ZM427.541 690H424.634V684.727H424.435C423.646 685.422 422.627 685.77 421.377 685.77C419.892 685.77 418.72 685.336 417.861 684.469C417.009 683.602 416.584 682.453 416.584 681.023V677.18H419.49V680.789C419.49 681.555 419.701 682.156 420.123 682.594C420.552 683.023 421.158 683.238 421.939 683.238C423.087 683.238 423.986 682.906 424.634 682.242V677.18H427.541V690ZM434.28 687.926C435.155 687.926 435.886 687.676 436.472 687.176C437.058 686.668 437.351 686.043 437.351 685.301V684.281L434.456 684.469C432.862 684.57 432.065 685.148 432.065 686.203C432.065 686.734 432.269 687.156 432.675 687.469C433.089 687.773 433.624 687.926 434.28 687.926ZM433.425 690.211C432.175 690.211 431.155 689.859 430.366 689.156C429.577 688.453 429.183 687.523 429.183 686.367C429.183 685.211 429.601 684.305 430.437 683.648C431.28 682.992 432.483 682.617 434.046 682.523L437.351 682.324V681.246C437.351 680.613 437.144 680.129 436.73 679.793C436.315 679.457 435.718 679.289 434.937 679.289C434.265 679.289 433.71 679.406 433.272 679.641C432.835 679.867 432.55 680.195 432.417 680.625H429.675C429.792 679.492 430.339 678.594 431.315 677.93C432.3 677.258 433.554 676.922 435.077 676.922C436.718 676.922 437.983 677.301 438.874 678.059C439.772 678.816 440.222 679.879 440.222 681.246V690H437.421V688.242H437.222C436.862 688.859 436.347 689.344 435.675 689.695C435.011 690.039 434.261 690.211 433.425 690.211ZM453.594 681.492H450.829C450.688 680.844 450.375 680.328 449.891 679.945C449.407 679.555 448.778 679.359 448.004 679.359C447.004 679.359 446.223 679.727 445.661 680.461C445.106 681.195 444.829 682.227 444.829 683.555C444.829 684.898 445.11 685.945 445.672 686.695C446.235 687.445 447.012 687.82 448.004 687.82C448.762 687.82 449.383 687.645 449.868 687.293C450.36 686.941 450.68 686.434 450.829 685.77H453.594C453.43 687.137 452.856 688.227 451.872 689.039C450.895 689.852 449.61 690.258 448.016 690.258C446.086 690.258 444.583 689.668 443.504 688.488C442.426 687.309 441.887 685.664 441.887 683.555C441.887 681.469 442.426 679.844 443.504 678.68C444.583 677.508 446.083 676.922 448.004 676.922C449.614 676.922 450.907 677.34 451.883 678.176C452.868 679.004 453.438 680.109 453.594 681.492Z" fill="black"/>
<rect x="200.5" y="40.5" width="1519" height="63" rx="31.5" fill="#252525" fill-opacity="0.4"/>
<rect x="200.5" y="40.5" width="1519" height="63" rx="31.5" stroke="#2F2F2F"/>
<g opacity="0.3" filter="url(#filter4_f_557_29699)">
<path d="M244 59.6958L245.611 67.5932L251.928 62.5779L248.08 69.6622L256.147 69.8758L248.64 72.8321L254.682 78.1745L247.028 75.6196L248.219 83.5912L244 76.7205L239.782 83.5912L240.972 75.6196L233.318 78.1745L239.36 72.8321L231.853 69.8758L239.92 69.6622L236.072 62.5779L242.389 67.5932L244 59.6958Z" fill="#3DDC5A"/>
</g>
<g style="mix-blend-mode:color-dodge">
<g filter="url(#filter5_f_557_29699)">
<ellipse cx="243.998" cy="72.0001" rx="1.96526" ry="18.8665" fill="url(#paint3_radial_557_29699)"/>
</g>
</g>
<g style="mix-blend-mode:color-dodge">
<g filter="url(#filter6_f_557_29699)">
<ellipse cx="243.999" cy="72.0001" rx="1.96526" ry="18.8665" transform="rotate(-90 243.999 72.0001)" fill="url(#paint4_radial_557_29699)"/>
</g>
</g>
<path d="M279.869 83H274.135V60.4531H279.869V70.3594H279.994L287.666 60.4531H293.823L285.963 70.4688L294.276 83H287.541L281.791 74.1875L279.869 76.625V83ZM301.386 83.4062C296.027 83.4062 292.683 80.1562 292.683 74.4844C292.683 68.9219 296.105 65.5781 301.386 65.5781C306.699 65.5781 310.089 68.9062 310.089 74.4844C310.089 80.1719 306.746 83.4062 301.386 83.4062ZM301.386 79.3438C303.277 79.3438 304.48 77.6094 304.48 74.5C304.48 71.4375 303.277 69.6406 301.386 69.6406C299.511 69.6406 298.308 71.4375 298.308 74.5C298.308 77.6094 299.48 79.3438 301.386 79.3438ZM310.95 83V65.9844H316.341V69.2656H316.45C317.122 67.0781 318.981 65.6562 321.309 65.6562C323.841 65.6562 325.559 66.9688 326.044 69.2812H326.153C326.809 67.0938 328.872 65.6562 331.403 65.6562C334.731 65.6562 336.997 68 336.997 71.4531V83H331.45V72.8594C331.45 71.0781 330.622 70.1562 329.059 70.1562C327.559 70.1562 326.622 71.2344 326.622 72.9062V83H321.325V72.7969C321.325 71.0938 320.481 70.1562 318.966 70.1562C317.466 70.1562 316.497 71.2656 316.497 72.9375V83H310.95ZM346.373 69.5156C344.67 69.5156 343.404 70.7812 343.264 72.5469H349.451C349.358 70.7344 348.123 69.5156 346.373 69.5156ZM349.576 77.625H354.576C354.045 81.1406 350.92 83.4062 346.467 83.4062C341.045 83.4062 337.811 80.0781 337.811 74.5781C337.811 69.0781 341.076 65.5781 346.279 65.5781C351.404 65.5781 354.67 68.9375 354.67 74.1406V75.7031H343.186V76.0469C343.186 78.0781 344.545 79.4844 346.545 79.4844C348.029 79.4844 349.186 78.7812 349.576 77.625ZM356.937 62.1719H362.484V65.9844H365.546V70.0625H362.484V77.2031C362.484 78.375 363.109 78.9688 364.437 78.9688C364.874 78.9688 365.202 78.9531 365.531 78.8906V82.8281C364.999 82.9375 364.187 83.0312 363.109 83.0312C358.687 83.0312 356.937 81.6719 356.937 78.3281V70.0625H354.624V65.9844H356.937V62.1719ZM373.501 79.4375C375.188 79.4375 376.657 78.4062 376.657 76.8906V75.7188L373.563 75.9219C372.11 76.0312 371.298 76.7031 371.298 77.7031C371.298 78.7812 372.188 79.4375 373.501 79.4375ZM371.532 83.25C368.376 83.25 365.813 81.1562 365.813 78.0781C365.813 74.8906 368.266 73.1094 372.673 72.8438L376.657 72.6094V71.6406C376.657 70.2812 375.688 69.5312 374.235 69.5312C372.735 69.5312 371.782 70.3125 371.626 71.3594H366.641C366.798 67.875 369.766 65.5781 374.516 65.5781C379.063 65.5781 382.079 67.9062 382.079 71.3281V83H376.688V80.5781H376.579C375.657 82.2969 373.579 83.25 371.532 83.25ZM401.925 83H394.706L387.519 60.4531H394.034L398.378 77.3906H398.503L402.831 60.4531H409.113L401.925 83ZM409.989 60.4531H419.754C424.598 60.4531 427.879 63.5938 427.879 68.4375C427.879 73.25 424.426 76.3906 419.411 76.3906H415.723V83H409.989V60.4531ZM415.723 64.8438V72.0781H418.207C420.645 72.0781 422.082 70.8125 422.082 68.4531C422.082 66.1094 420.645 64.8438 418.239 64.8438H415.723ZM434.584 83H429.146V60.4531H433.724L443.287 73.5625H443.412V60.4531H448.849V83H444.318L434.709 69.7656H434.584V83Z" fill="white"/>
<path d="M1250.71 81.7832H1249.08V79H1237.89V64.9082H1239.65V77.418H1247.19V64.9082H1248.95V77.418H1250.71V81.7832ZM1256.07 69.7715C1255.23 69.7715 1254.54 70.0547 1254 70.6211C1253.46 71.1875 1253.16 71.9362 1253.09 72.8672H1258.89C1258.87 71.9362 1258.61 71.1875 1258.09 70.6211C1257.58 70.0547 1256.9 69.7715 1256.07 69.7715ZM1258.84 76.2754H1260.52C1260.27 77.1868 1259.75 77.8997 1258.97 78.4141C1258.2 78.9284 1257.23 79.1855 1256.09 79.1855C1254.63 79.1855 1253.48 78.6973 1252.62 77.7207C1251.77 76.7376 1251.34 75.4128 1251.34 73.7461C1251.34 72.0859 1251.77 70.7611 1252.63 69.7715C1253.49 68.7819 1254.64 68.2871 1256.09 68.2871C1257.51 68.2871 1258.62 68.7591 1259.44 69.7031C1260.25 70.6471 1260.66 71.9395 1260.66 73.5801V74.2246H1253.09V74.3027C1253.14 75.3444 1253.43 76.1712 1253.97 76.7832C1254.52 77.3952 1255.24 77.7012 1256.13 77.7012C1257.49 77.7012 1258.39 77.2259 1258.84 76.2754ZM1264.52 74.3809C1264.47 74.9863 1264.41 75.5202 1264.32 75.9824C1264.24 76.4447 1264.12 76.8776 1263.96 77.2812C1263.81 77.6849 1263.62 78.0169 1263.39 78.2773C1263.17 78.5312 1262.9 78.7298 1262.56 78.873C1262.23 79.0163 1261.85 79.0879 1261.42 79.0879C1261.18 79.0879 1260.98 79.0521 1260.81 78.9805V77.4375C1260.96 77.4896 1261.14 77.5156 1261.33 77.5156C1261.83 77.5156 1262.2 77.2487 1262.44 76.7148C1262.69 76.1745 1262.84 75.3835 1262.92 74.3418L1263.33 68.4727H1270.21V79H1268.53V69.8789H1264.85L1264.52 74.3809ZM1276.11 73.2578H1274.03V77.5938H1276.11C1276.8 77.5938 1277.35 77.3984 1277.76 77.0078C1278.18 76.6107 1278.39 76.0833 1278.39 75.4258C1278.39 74.7682 1278.18 74.2441 1277.76 73.8535C1277.35 73.4564 1276.8 73.2578 1276.11 73.2578ZM1272.35 79V68.4727H1274.03V71.8516H1276.11C1277.32 71.8516 1278.28 72.1738 1278.99 72.8184C1279.71 73.4629 1280.07 74.332 1280.07 75.4258C1280.07 76.5195 1279.71 77.3887 1278.99 78.0332C1278.28 78.6777 1277.32 79 1276.11 79H1272.35ZM1292.76 79V69.8789H1287.61V79H1285.93V68.4727H1294.44V79H1292.76ZM1301.71 68.2871C1303.05 68.2871 1304.12 68.7819 1304.92 69.7715C1305.73 70.7611 1306.13 72.0827 1306.13 73.7363C1306.13 75.3835 1305.73 76.7051 1304.92 77.7012C1304.12 78.6908 1303.04 79.1855 1301.71 79.1855C1300.96 79.1855 1300.3 79.0326 1299.72 78.7266C1299.14 78.4141 1298.71 77.9779 1298.42 77.418H1298.26V82.5156H1296.58V68.4727H1298.18V70.2305H1298.34C1298.68 69.625 1299.15 69.1497 1299.74 68.8047C1300.34 68.4596 1300.99 68.2871 1301.71 68.2871ZM1301.31 77.6719C1302.27 77.6719 1303.03 77.3236 1303.58 76.627C1304.12 75.9303 1304.4 74.9668 1304.4 73.7363C1304.4 72.5059 1304.12 71.5423 1303.58 70.8457C1303.04 70.1491 1302.28 69.8008 1301.32 69.8008C1300.37 69.8008 1299.61 70.1556 1299.05 70.8652C1298.49 71.5684 1298.21 72.5254 1298.21 73.7363C1298.21 74.9408 1298.49 75.8978 1299.04 76.6074C1299.6 77.3171 1300.36 77.6719 1301.31 77.6719ZM1315.65 77.7305C1314.78 78.7005 1313.6 79.1855 1312.1 79.1855C1310.6 79.1855 1309.42 78.7005 1308.55 77.7305C1307.68 76.7539 1307.25 75.4225 1307.25 73.7363C1307.25 72.0436 1307.68 70.7122 1308.55 69.7422C1309.41 68.7721 1310.6 68.2871 1312.1 68.2871C1313.61 68.2871 1314.79 68.7721 1315.66 69.7422C1316.52 70.7122 1316.96 72.0436 1316.96 73.7363C1316.96 75.4225 1316.52 76.7539 1315.65 77.7305ZM1309.8 76.6465C1310.34 77.3301 1311.11 77.6719 1312.1 77.6719C1313.1 77.6719 1313.87 77.3301 1314.41 76.6465C1314.95 75.9564 1315.22 74.9863 1315.22 73.7363C1315.22 72.4863 1314.95 71.5195 1314.41 70.8359C1313.87 70.1458 1313.1 69.8008 1312.1 69.8008C1311.11 69.8008 1310.34 70.1458 1309.8 70.8359C1309.26 71.5195 1308.99 72.4863 1308.99 73.7363C1308.99 74.9863 1309.26 75.9564 1309.8 76.6465ZM1322.79 69.7715C1321.95 69.7715 1321.26 70.0547 1320.72 70.6211C1320.18 71.1875 1319.87 71.9362 1319.81 72.8672H1325.61C1325.59 71.9362 1325.32 71.1875 1324.81 70.6211C1324.29 70.0547 1323.62 69.7715 1322.79 69.7715ZM1325.56 76.2754H1327.24C1326.99 77.1868 1326.47 77.8997 1325.69 78.4141C1324.91 78.9284 1323.95 79.1855 1322.81 79.1855C1321.35 79.1855 1320.19 78.6973 1319.34 77.7207C1318.49 76.7376 1318.06 75.4128 1318.06 73.7461C1318.06 72.0859 1318.49 70.7611 1319.35 69.7715C1320.21 68.7819 1321.36 68.2871 1322.81 68.2871C1324.23 68.2871 1325.34 68.7591 1326.16 69.7031C1326.97 70.6471 1327.38 71.9395 1327.38 73.5801V74.2246H1319.81V74.3027C1319.85 75.3444 1320.15 76.1712 1320.69 76.7832C1321.23 77.3952 1321.95 77.7012 1322.85 77.7012C1324.21 77.7012 1325.11 77.2259 1325.56 76.2754ZM1331.14 74.2051H1330.68V79H1329V68.4727H1330.68V72.877H1331.14L1335.31 68.4727H1337.35L1332.52 73.4336L1337.53 79H1335.36L1331.14 74.2051ZM1345.82 68.4727V69.8789H1342.4V79H1340.72V69.8789H1337.3V68.4727H1345.82ZM1350.16 77.7109C1351.03 77.7109 1351.75 77.4603 1352.31 76.959C1352.88 76.4577 1353.17 75.8294 1353.17 75.0742V74.1074L1350.34 74.293C1349.54 74.3451 1348.96 74.5111 1348.59 74.791C1348.22 75.071 1348.03 75.4779 1348.03 76.0117C1348.03 76.5391 1348.23 76.9557 1348.63 77.2617C1349.03 77.5612 1349.54 77.7109 1350.16 77.7109ZM1349.85 79.1855C1348.82 79.1855 1347.96 78.9023 1347.29 78.3359C1346.63 77.763 1346.3 77.0013 1346.3 76.0508C1346.3 75.1133 1346.63 74.3776 1347.29 73.8438C1347.96 73.3099 1348.9 73.0072 1350.13 72.9355L1353.17 72.75V71.793C1353.17 71.1419 1352.97 70.6439 1352.57 70.2988C1352.16 69.9538 1351.57 69.7812 1350.79 69.7812C1350.16 69.7812 1349.63 69.8952 1349.22 70.123C1348.8 70.3509 1348.53 70.6732 1348.42 71.0898H1346.72C1346.83 70.25 1347.26 69.5729 1348.01 69.0586C1348.78 68.5443 1349.72 68.2871 1350.85 68.2871C1352.12 68.2871 1353.11 68.5964 1353.81 69.2148C1354.5 69.8333 1354.85 70.6927 1354.85 71.793V79H1353.25V77.4473H1353.09C1352.75 78.0072 1352.31 78.4368 1351.75 78.7363C1351.19 79.0358 1350.55 79.1855 1349.85 79.1855Z" fill="white"/>
<path d="M1427.94 79H1426.2V66.5098H1418.66V79H1416.89V64.9082H1427.94V79ZM1438.19 77.7305C1437.33 78.7005 1436.15 79.1855 1434.65 79.1855C1433.15 79.1855 1431.97 78.7005 1431.09 77.7305C1430.23 76.7539 1429.8 75.4225 1429.8 73.7363C1429.8 72.0436 1430.23 70.7122 1431.09 69.7422C1431.96 68.7721 1433.15 68.2871 1434.65 68.2871C1436.15 68.2871 1437.34 68.7721 1438.2 69.7422C1439.07 70.7122 1439.5 72.0436 1439.5 73.7363C1439.5 75.4225 1439.07 76.7539 1438.19 77.7305ZM1432.34 76.6465C1432.89 77.3301 1433.65 77.6719 1434.65 77.6719C1435.65 77.6719 1436.41 77.3301 1436.95 76.6465C1437.49 75.9564 1437.76 74.9863 1437.76 73.7363C1437.76 72.4863 1437.49 71.5195 1436.95 70.8359C1436.41 70.1458 1435.65 69.8008 1434.65 69.8008C1433.65 69.8008 1432.89 70.1458 1432.34 70.8359C1431.8 71.5195 1431.53 72.4863 1431.53 73.7363C1431.53 74.9863 1431.8 75.9564 1432.34 76.6465ZM1443.56 74.3809C1443.51 74.9863 1443.45 75.5202 1443.36 75.9824C1443.28 76.4447 1443.16 76.8776 1443 77.2812C1442.85 77.6849 1442.66 78.0169 1442.43 78.2773C1442.21 78.5312 1441.94 78.7298 1441.6 78.873C1441.27 79.0163 1440.89 79.0879 1440.46 79.0879C1440.22 79.0879 1440.02 79.0521 1439.85 78.9805V77.4375C1440 77.4896 1440.18 77.5156 1440.37 77.5156C1440.87 77.5156 1441.24 77.2487 1441.48 76.7148C1441.72 76.1745 1441.88 75.3835 1441.96 74.3418L1442.37 68.4727H1449.25V79H1447.57V69.8789H1443.89L1443.56 74.3809ZM1453.07 79H1451.39V68.4727H1453.07V76.3242H1453.23L1458.47 68.4727H1460.15V79H1458.47V71.1484H1458.31L1453.07 79ZM1469.93 68.4727V69.8789H1466.51V79H1464.83V69.8789H1461.41V68.4727H1469.93ZM1472.86 79H1471.18V68.4727H1472.86V76.3242H1473.01L1478.26 68.4727H1479.94V79H1478.26V71.1484H1478.1L1472.86 79ZM1484.23 74.2051H1483.77V79H1482.09V68.4727H1483.77V72.877H1484.23L1488.4 68.4727H1490.44L1485.61 73.4336L1490.62 79H1488.44L1484.23 74.2051ZM1494.72 77.7109C1495.59 77.7109 1496.31 77.4603 1496.87 76.959C1497.45 76.4577 1497.73 75.8294 1497.73 75.0742V74.1074L1494.9 74.293C1494.11 74.3451 1493.52 74.5111 1493.15 74.791C1492.78 75.071 1492.6 75.4779 1492.6 76.0117C1492.6 76.5391 1492.79 76.9557 1493.19 77.2617C1493.59 77.5612 1494.1 77.7109 1494.72 77.7109ZM1494.41 79.1855C1493.38 79.1855 1492.52 78.9023 1491.85 78.3359C1491.19 77.763 1490.86 77.0013 1490.86 76.0508C1490.86 75.1133 1491.19 74.3776 1491.85 73.8438C1492.52 73.3099 1493.47 73.0072 1494.7 72.9355L1497.73 72.75V71.793C1497.73 71.1419 1497.53 70.6439 1497.13 70.2988C1496.72 69.9538 1496.13 69.7812 1495.35 69.7812C1494.72 69.7812 1494.19 69.8952 1493.78 70.123C1493.36 70.3509 1493.09 70.6732 1492.98 71.0898H1491.28C1491.39 70.25 1491.82 69.5729 1492.58 69.0586C1493.34 68.5443 1494.28 68.2871 1495.41 68.2871C1496.68 68.2871 1497.67 68.5964 1498.37 69.2148C1499.06 69.8333 1499.41 70.6927 1499.41 71.793V79H1497.81V77.4473H1497.65C1497.32 78.0072 1496.87 78.4368 1496.31 78.7363C1495.75 79.0358 1495.12 79.1855 1494.41 79.1855ZM1508.09 74.2051H1507.63V79H1505.95V68.4727H1507.63V72.877H1508.09L1512.26 68.4727H1514.3L1509.47 73.4336L1514.48 79H1512.31L1508.09 74.2051ZM1523.02 77.7305C1522.15 78.7005 1520.97 79.1855 1519.47 79.1855C1517.98 79.1855 1516.79 78.7005 1515.92 77.7305C1515.05 76.7539 1514.62 75.4225 1514.62 73.7363C1514.62 72.0436 1515.05 70.7122 1515.92 69.7422C1516.79 68.7721 1517.97 68.2871 1519.47 68.2871C1520.98 68.2871 1522.16 68.7721 1523.03 69.7422C1523.9 70.7122 1524.33 72.0436 1524.33 73.7363C1524.33 75.4225 1523.89 76.7539 1523.02 77.7305ZM1517.17 76.6465C1517.71 77.3301 1518.48 77.6719 1519.47 77.6719C1520.47 77.6719 1521.24 77.3301 1521.78 76.6465C1522.32 75.9564 1522.59 74.9863 1522.59 73.7363C1522.59 72.4863 1522.32 71.5195 1521.78 70.8359C1521.24 70.1458 1520.47 69.8008 1519.47 69.8008C1518.48 69.8008 1517.71 70.1458 1517.17 70.8359C1516.63 71.5195 1516.36 72.4863 1516.36 73.7363C1516.36 74.9863 1516.63 75.9564 1517.17 76.6465ZM1532.88 79V74.2344H1527.63V79H1525.95V68.4727H1527.63V72.8281H1532.88V68.4727H1534.56V79H1532.88ZM1541.62 77.6719V69.8008C1540.47 69.8268 1539.56 70.1914 1538.89 70.8945C1538.23 71.5911 1537.89 72.5384 1537.89 73.7363C1537.89 74.9277 1538.23 75.875 1538.89 76.5781C1539.56 77.2747 1540.47 77.6393 1541.62 77.6719ZM1546.97 73.7363C1546.97 72.5449 1546.63 71.6009 1545.96 70.9043C1545.3 70.2012 1544.4 69.8333 1543.26 69.8008V77.6719C1544.4 77.6458 1545.3 77.2845 1545.96 76.5879C1546.63 75.8848 1546.97 74.9342 1546.97 73.7363ZM1541.62 79.127C1539.97 79.0944 1538.66 78.5931 1537.67 77.623C1536.68 76.6465 1536.19 75.3509 1536.19 73.7363C1536.19 72.1152 1536.68 70.8197 1537.67 69.8496C1538.66 68.873 1539.97 68.3717 1541.62 68.3457V64.9082H1543.26V68.3457C1544.89 68.3783 1546.2 68.8828 1547.19 69.8594C1548.18 70.8294 1548.68 72.1217 1548.68 73.7363C1548.68 75.3574 1548.18 76.6562 1547.19 77.6328C1546.2 78.6029 1544.89 79.1009 1543.26 79.127V82.5156H1541.62V79.127ZM1551.99 79H1550.31V68.4727H1551.99V76.3242H1552.14L1557.39 68.4727H1559.07V79H1557.39V71.1484H1557.23L1551.99 79ZM1567.92 77.5938V69.8789H1563.92L1563.59 74.3809C1563.48 75.8001 1563.19 76.819 1562.72 77.4375V77.5938H1567.92ZM1561.46 81.7832H1559.88V77.5938H1560.76C1561.12 77.3529 1561.41 76.9427 1561.62 76.3633C1561.83 75.7773 1561.96 75.1035 1562.01 74.3418L1562.42 68.4727H1569.6V77.5938H1571.28V81.7832H1569.69V79H1561.46V81.7832ZM1576.49 69.7715C1575.65 69.7715 1574.96 70.0547 1574.42 70.6211C1573.88 71.1875 1573.58 71.9362 1573.51 72.8672H1579.31C1579.29 71.9362 1579.03 71.1875 1578.51 70.6211C1578 70.0547 1577.33 69.7715 1576.49 69.7715ZM1579.27 76.2754H1580.95C1580.69 77.1868 1580.17 77.8997 1579.39 78.4141C1578.62 78.9284 1577.66 79.1855 1576.51 79.1855C1575.05 79.1855 1573.9 78.6973 1573.04 77.7207C1572.19 76.7376 1571.77 75.4128 1571.77 73.7461C1571.77 72.0859 1572.2 70.7611 1573.05 69.7715C1573.91 68.7819 1575.07 68.2871 1576.51 68.2871C1577.93 68.2871 1579.05 68.7591 1579.86 69.7031C1580.68 70.6471 1581.08 71.9395 1581.08 73.5801V74.2246H1573.51V74.3027C1573.56 75.3444 1573.85 76.1712 1574.39 76.7832C1574.94 77.3952 1575.66 77.7012 1576.55 77.7012C1577.91 77.7012 1578.82 77.2259 1579.27 76.2754ZM1589.64 79V74.2344H1584.38V79H1582.7V68.4727H1584.38V72.8281H1589.64V68.4727H1591.32V79H1589.64ZM1603.56 81.7832H1601.97V79H1593.46V68.4727H1595.14V77.5938H1600.2V68.4727H1601.88V77.5938H1603.56V81.7832ZM1606.24 79H1604.56V68.4727H1606.24V76.3242H1606.4L1611.64 68.4727H1613.32V79H1611.64V71.1484H1611.49L1606.24 79ZM1618.72 77.7109C1619.59 77.7109 1620.31 77.4603 1620.87 76.959C1621.44 76.4577 1621.73 75.8294 1621.73 75.0742V74.1074L1618.9 74.293C1618.1 74.3451 1617.52 74.5111 1617.15 74.791C1616.78 75.071 1616.59 75.4779 1616.59 76.0117C1616.59 76.5391 1616.79 76.9557 1617.19 77.2617C1617.59 77.5612 1618.1 77.7109 1618.72 77.7109ZM1618.41 79.1855C1617.38 79.1855 1616.52 78.9023 1615.85 78.3359C1615.19 77.763 1614.86 77.0013 1614.86 76.0508C1614.86 75.1133 1615.19 74.3776 1615.85 73.8438C1616.52 73.3099 1617.46 73.0072 1618.69 72.9355L1621.73 72.75V71.793C1621.73 71.1419 1621.53 70.6439 1621.13 70.2988C1620.72 69.9538 1620.13 69.7812 1619.35 69.7812C1618.72 69.7812 1618.19 69.8952 1617.78 70.123C1617.36 70.3509 1617.09 70.6732 1616.98 71.0898H1615.28C1615.39 70.25 1615.82 69.5729 1616.57 69.0586C1617.34 68.5443 1618.28 68.2871 1619.41 68.2871C1620.68 68.2871 1621.67 68.5964 1622.37 69.2148C1623.06 69.8333 1623.41 70.6927 1623.41 71.793V79H1621.81V77.4473H1621.65C1621.31 78.0072 1620.87 78.4368 1620.31 78.7363C1619.75 79.0358 1619.11 79.1855 1618.41 79.1855ZM1628.03 74.3809C1627.99 74.9863 1627.92 75.5202 1627.84 75.9824C1627.75 76.4447 1627.63 76.8776 1627.47 77.2812C1627.32 77.6849 1627.14 78.0169 1626.91 78.2773C1626.69 78.5312 1626.41 78.7298 1626.08 78.873C1625.75 79.0163 1625.37 79.0879 1624.94 79.0879C1624.69 79.0879 1624.49 79.0521 1624.32 78.9805V77.4375C1624.48 77.4896 1624.65 77.5156 1624.85 77.5156C1625.34 77.5156 1625.71 77.2487 1625.95 76.7148C1626.2 76.1745 1626.36 75.3835 1626.43 74.3418L1626.84 68.4727H1633.72V79H1632.04V69.8789H1628.36L1628.03 74.3809ZM1639.62 73.2578H1637.54V77.5938H1639.62C1640.31 77.5938 1640.86 77.3984 1641.27 77.0078C1641.69 76.6107 1641.9 76.0833 1641.9 75.4258C1641.9 74.7682 1641.69 74.2441 1641.27 73.8535C1640.86 73.4564 1640.31 73.2578 1639.62 73.2578ZM1635.86 79V68.4727H1637.54V71.8516H1639.62C1640.83 71.8516 1641.79 72.1738 1642.51 72.8184C1643.22 73.4629 1643.58 74.332 1643.58 75.4258C1643.58 76.5195 1643.22 77.3887 1642.51 78.0332C1641.79 78.6777 1640.83 79 1639.62 79H1635.86ZM1651.93 79V74.2344H1646.68V79H1645V68.4727H1646.68V72.8281H1651.93V68.4727H1653.61V79H1651.93ZM1663.63 77.7305C1662.76 78.7005 1661.58 79.1855 1660.09 79.1855C1658.59 79.1855 1657.4 78.7005 1656.53 77.7305C1655.66 76.7539 1655.23 75.4225 1655.23 73.7363C1655.23 72.0436 1655.66 70.7122 1656.53 69.7422C1657.4 68.7721 1658.58 68.2871 1660.09 68.2871C1661.59 68.2871 1662.77 68.7721 1663.64 69.7422C1664.51 70.7122 1664.94 72.0436 1664.94 73.7363C1664.94 75.4225 1664.5 76.7539 1663.63 77.7305ZM1657.78 76.6465C1658.32 77.3301 1659.09 77.6719 1660.09 77.6719C1661.08 77.6719 1661.85 77.3301 1662.39 76.6465C1662.93 75.9564 1663.2 74.9863 1663.2 73.7363C1663.2 72.4863 1662.93 71.5195 1662.39 70.8359C1661.85 70.1458 1661.08 69.8008 1660.09 69.8008C1659.09 69.8008 1658.32 70.1458 1657.78 70.8359C1657.24 71.5195 1656.97 72.4863 1656.97 73.7363C1656.97 74.9863 1657.24 75.9564 1657.78 76.6465ZM1675.28 71.6953H1673.58C1673.44 71.1419 1673.13 70.6895 1672.66 70.3379C1672.19 69.9798 1671.59 69.8008 1670.87 69.8008C1669.92 69.8008 1669.17 70.1523 1668.61 70.8555C1668.06 71.5586 1667.78 72.5059 1667.78 73.6973C1667.78 74.9082 1668.06 75.875 1668.62 76.5977C1669.18 77.3138 1669.93 77.6719 1670.87 77.6719C1671.58 77.6719 1672.17 77.5124 1672.64 77.1934C1673.11 76.8743 1673.43 76.4186 1673.58 75.8262H1675.28C1675.13 76.8223 1674.66 77.6328 1673.89 78.2578C1673.11 78.8763 1672.11 79.1855 1670.88 79.1855C1669.4 79.1855 1668.22 78.6908 1667.35 77.7012C1666.48 76.7051 1666.04 75.3704 1666.04 73.6973C1666.04 72.0566 1666.48 70.7448 1667.35 69.7617C1668.22 68.7786 1669.4 68.2871 1670.87 68.2871C1672.1 68.2871 1673.1 68.6094 1673.88 69.2539C1674.66 69.8984 1675.13 70.7122 1675.28 71.6953ZM1683.89 68.4727V69.8789H1680.47V79H1678.79V69.8789H1675.37V68.4727H1683.89ZM1686.82 79H1685.14V68.4727H1686.82V76.3242H1686.97L1692.22 68.4727H1693.9V79H1692.22V71.1484H1692.06L1686.82 79Z" fill="white"/>
</g>
<defs>
<filter id="filter0_f_557_29699" x="1580.83" y="238.535" width="170.787" height="172.797" filterUnits="userSpaceOnUse" color-interpolation-filters="sRGB">
<feFlood flood-opacity="0" result="BackgroundImageFix"/>
<feBlend mode="normal" in="SourceGraphic" in2="BackgroundImageFix" result="shape"/>
<feGaussianBlur stdDeviation="25" result="effect1_foregroundBlur_557_29699"/>
</filter>
<filter id="filter1_f_557_29699" x="1301.46" y="201.795" width="153.246" height="154.651" filterUnits="userSpaceOnUse" color-interpolation-filters="sRGB">
<feFlood flood-opacity="0" result="BackgroundImageFix"/>
<feBlend mode="normal" in="SourceGraphic" in2="BackgroundImageFix" result="shape"/>
<feGaussianBlur stdDeviation="25" result="effect1_foregroundBlur_557_29699"/>
</filter>
<filter id="filter2_f_557_29699" x="1623.78" y="410.947" width="139.703" height="138.425" filterUnits="userSpaceOnUse" color-interpolation-filters="sRGB">
<feFlood flood-opacity="0" result="BackgroundImageFix"/>
<feBlend mode="normal" in="SourceGraphic" in2="BackgroundImageFix" result="shape"/>
<feGaussianBlur stdDeviation="25" result="effect1_foregroundBlur_557_29699"/>
</filter>
<filter id="filter4_f_557_29699" x="225.893" y="53.7356" width="36.2134" height="35.8158" filterUnits="userSpaceOnUse" color-interpolation-filters="sRGB">
<feFlood flood-opacity="0" result="BackgroundImageFix"/>
<feBlend mode="normal" in="SourceGraphic" in2="BackgroundImageFix" result="shape"/>
<feGaussianBlur stdDeviation="2.98011" result="effect1_foregroundBlur_557_29699"/>
</filter>
<filter id="filter5_f_557_29699" x="241.914" y="53.0142" width="4.16832" height="37.9717" filterUnits="userSpaceOnUse" color-interpolation-filters="sRGB">
<feFlood flood-opacity="0" result="BackgroundImageFix"/>
<feBlend mode="normal" in="SourceGraphic" in2="BackgroundImageFix" result="shape"/>
<feGaussianBlur stdDeviation="0.059657" result="effect1_foregroundBlur_557_29699"/>
</filter>
<filter id="filter6_f_557_29699" x="225.013" y="69.9155" width="37.971" height="4.16917" filterUnits="userSpaceOnUse" color-interpolation-filters="sRGB">
<feFlood flood-opacity="0" result="BackgroundImageFix"/>
<feBlend mode="normal" in="SourceGraphic" in2="BackgroundImageFix" result="shape"/>
<feGaussianBlur stdDeviation="0.059657" result="effect1_foregroundBlur_557_29699"/>
</filter>
<linearGradient id="paint0_linear_557_29699" x1="1694.21" y1="477.292" x2="1694.21" y2="770.461" gradientUnits="userSpaceOnUse">
<stop stop-color="white"/>
<stop stop-color="#F8F9FF"/>
<stop offset="0.0001" stop-color="white"/>
<stop offset="1" stop-color="#38FA59" stop-opacity="0"/>
</linearGradient>
<linearGradient id="paint1_linear_557_29699" x1="1371.79" y1="282.599" x2="1371.79" y2="825.649" gradientUnits="userSpaceOnUse">
<stop stop-color="white"/>
<stop stop-color="#F8F9FF"/>
<stop offset="0.0001" stop-color="white"/>
<stop offset="1" stop-color="#38FA59" stop-opacity="0"/>
</linearGradient>
<linearGradient id="paint2_linear_557_29699" x1="1677.89" y1="313.031" x2="1677.89" y2="1343.37" gradientUnits="userSpaceOnUse">
<stop stop-color="white"/>
<stop stop-color="#F8F9FF"/>
<stop offset="0.0001" stop-color="white"/>
<stop offset="0.609647" stop-color="#38FA59" stop-opacity="0"/>
</linearGradient>
<radialGradient id="paint3_radial_557_29699" cx="0" cy="0" r="1" gradientUnits="userSpaceOnUse" gradientTransform="translate(243.998 72.0001) rotate(90) scale(18.8665 1.96526)">
<stop offset="0.151042" stop-color="#F0FFE4"/>
<stop offset="1" stop-color="#3AFF3A" stop-opacity="0"/>
</radialGradient>
<radialGradient id="paint4_radial_557_29699" cx="0" cy="0" r="1" gradientUnits="userSpaceOnUse" gradientTransform="translate(243.999 72.0001) rotate(90) scale(18.8665 1.96526)">
<stop offset="0.151042" stop-color="#F0FFE4"/>
<stop offset="1" stop-color="#3AFF3A" stop-opacity="0"/>
</radialGradient>
<clipPath id="clip0_557_29699">
<rect width="1920" height="1121" fill="white"/>
</clipPath>
</defs>
</svg>
